<svg width="76" height="25" viewBox="0 0 76 25" fill="none" xmlns="http://www.w3.org/2000/svg">
<mask id="path-1-outside-1_1_860" maskUnits="userSpaceOnUse" x="12.8032" y="4.74707" width="49" height="12" fill="black">
<rect fill="white" x="12.8032" y="4.74707" width="49" height="12"/>
<path d="M18.5168 6.00307L21.3488 14.5711C21.6008 15.3031 21.8648 15.4591 22.6448 15.4591V15.7471H18.9968V15.4591C20.1608 15.4591 20.1728 15.2671 19.9568 14.5591L19.3808 12.7111H16.1648L15.5768 14.5711C15.3488 15.2671 15.3608 15.4591 16.5008 15.4591V15.7471H13.7888V15.4591C14.5448 15.4591 14.8088 15.3031 15.0488 14.5711L17.8568 6.00307H18.5168ZM17.7608 7.73107L16.3208 12.2431H19.2248L17.8088 7.73107H17.7608ZM27.9434 15.7471H24.3074V15.4591C25.4234 15.4591 25.5794 15.2431 25.5794 14.5111V7.38307C25.5794 6.65107 25.4234 6.43507 24.3074 6.43507V6.14707H28.0634C29.8154 6.14707 30.9794 6.91507 30.9794 8.52307C30.9794 9.85507 30.1034 10.6351 28.9394 10.7791V10.8391C30.4394 10.9351 31.4234 11.8711 31.4234 13.1671C31.4234 15.0631 29.8634 15.7471 27.9434 15.7471ZM26.9114 7.01107V10.5391C27.2114 10.5871 27.5234 10.5871 27.8114 10.5871C28.7954 10.5871 29.6594 9.96307 29.6594 8.57107C29.6594 7.20307 28.7834 6.63907 27.8354 6.63907C27.6074 6.63907 27.3554 6.65107 27.1514 6.69907C26.9834 6.73507 26.9114 6.84307 26.9114 7.01107ZM26.9114 11.1271V14.8831C26.9114 15.1711 27.2234 15.2551 27.7874 15.2551C28.9154 15.2551 30.0794 14.8351 30.0794 13.1791C30.0794 11.5231 28.7474 11.0791 27.8234 11.0791C27.5114 11.0791 27.2114 11.0791 26.9114 11.1271ZM37.7077 15.9391C35.4397 15.9391 33.9517 13.7431 33.9517 10.9471C33.9517 8.15107 35.4397 5.96707 37.6717 5.96707C39.9397 5.96707 41.4277 8.17507 41.4277 10.9591C41.4277 13.7671 39.9517 15.9391 37.7077 15.9391ZM37.9597 15.4231C39.3277 15.4231 40.0477 13.7551 40.0477 11.9671C40.0477 9.43507 39.1477 6.48307 37.4197 6.48307C36.0637 6.48307 35.3317 8.16307 35.3317 9.92707C35.3317 12.4831 36.2197 15.4231 37.9597 15.4231ZM47.918 15.9391C45.602 15.9391 44.738 14.4751 44.738 12.5431V7.38307C44.738 6.65107 44.582 6.43507 43.466 6.43507V6.14707H47.378V6.43507C46.25 6.43507 46.094 6.65107 46.094 7.38307V12.5431C46.094 14.4871 46.838 15.2791 48.242 15.2791C49.574 15.2791 50.39 14.4151 50.39 12.5071V7.38307C50.39 6.65107 50.222 6.43507 49.106 6.43507V6.14707H52.202V6.43507C51.086 6.43507 50.918 6.65107 50.918 7.38307V12.5071C50.918 14.2711 50.27 15.9391 47.918 15.9391ZM56.7176 6.68707H55.9376C55.0616 6.68707 54.7736 6.95107 54.6536 8.60707L54.3056 8.58307L54.4616 6.50707L54.4976 6.14707H61.1096L61.1336 6.50707L61.2896 8.58307L60.9536 8.60707C60.8216 6.95107 60.5456 6.68707 59.6576 6.68707H58.8776C58.6256 6.68707 58.4816 6.83107 58.4816 7.09507V14.5111C58.4816 15.2431 58.6376 15.4591 59.7536 15.4591V15.7471H55.8416V15.4591C56.9696 15.4591 57.1256 15.2431 57.1256 14.5111V7.09507C57.1256 6.83107 56.9816 6.68707 56.7176 6.68707Z"/>
</mask>
<path d="M18.5168 6.00307L21.3488 14.5711C21.6008 15.3031 21.8648 15.4591 22.6448 15.4591V15.7471H18.9968V15.4591C20.1608 15.4591 20.1728 15.2671 19.9568 14.5591L19.3808 12.7111H16.1648L15.5768 14.5711C15.3488 15.2671 15.3608 15.4591 16.5008 15.4591V15.7471H13.7888V15.4591C14.5448 15.4591 14.8088 15.3031 15.0488 14.5711L17.8568 6.00307H18.5168ZM17.7608 7.73107L16.3208 12.2431H19.2248L17.8088 7.73107H17.7608ZM27.9434 15.7471H24.3074V15.4591C25.4234 15.4591 25.5794 15.2431 25.5794 14.5111V7.38307C25.5794 6.65107 25.4234 6.43507 24.3074 6.43507V6.14707H28.0634C29.8154 6.14707 30.9794 6.91507 30.9794 8.52307C30.9794 9.85507 30.1034 10.6351 28.9394 10.7791V10.8391C30.4394 10.9351 31.4234 11.8711 31.4234 13.1671C31.4234 15.0631 29.8634 15.7471 27.9434 15.7471ZM26.9114 7.01107V10.5391C27.2114 10.5871 27.5234 10.5871 27.8114 10.5871C28.7954 10.5871 29.6594 9.96307 29.6594 8.57107C29.6594 7.20307 28.7834 6.63907 27.8354 6.63907C27.6074 6.63907 27.3554 6.65107 27.1514 6.69907C26.9834 6.73507 26.9114 6.84307 26.9114 7.01107ZM26.9114 11.1271V14.8831C26.9114 15.1711 27.2234 15.2551 27.7874 15.2551C28.9154 15.2551 30.0794 14.8351 30.0794 13.1791C30.0794 11.5231 28.7474 11.0791 27.8234 11.0791C27.5114 11.0791 27.2114 11.0791 26.9114 11.1271ZM37.7077 15.9391C35.4397 15.9391 33.9517 13.7431 33.9517 10.9471C33.9517 8.15107 35.4397 5.96707 37.6717 5.96707C39.9397 5.96707 41.4277 8.17507 41.4277 10.9591C41.4277 13.7671 39.9517 15.9391 37.7077 15.9391ZM37.9597 15.4231C39.3277 15.4231 40.0477 13.7551 40.0477 11.9671C40.0477 9.43507 39.1477 6.48307 37.4197 6.48307C36.0637 6.48307 35.3317 8.16307 35.3317 9.92707C35.3317 12.4831 36.2197 15.4231 37.9597 15.4231ZM47.918 15.9391C45.602 15.9391 44.738 14.4751 44.738 12.5431V7.38307C44.738 6.65107 44.582 6.43507 43.466 6.43507V6.14707H47.378V6.43507C46.25 6.43507 46.094 6.65107 46.094 7.38307V12.5431C46.094 14.4871 46.838 15.2791 48.242 15.2791C49.574 15.2791 50.39 14.4151 50.39 12.5071V7.38307C50.39 6.65107 50.222 6.43507 49.106 6.43507V6.14707H52.202V6.43507C51.086 6.43507 50.918 6.65107 50.918 7.38307V12.5071C50.918 14.2711 50.27 15.9391 47.918 15.9391ZM56.7176 6.68707H55.9376C55.0616 6.68707 54.7736 6.95107 54.6536 8.60707L54.3056 8.58307L54.4616 6.50707L54.4976 6.14707H61.1096L61.1336 6.50707L61.2896 8.58307L60.9536 8.60707C60.8216 6.95107 60.5456 6.68707 59.6576 6.68707H58.8776C58.6256 6.68707 58.4816 6.83107 58.4816 7.09507V14.5111C58.4816 15.2431 58.6376 15.4591 59.7536 15.4591V15.7471H55.8416V15.4591C56.9696 15.4591 57.1256 15.2431 57.1256 14.5111V7.09507C57.1256 6.83107 56.9816 6.68707 56.7176 6.68707Z" fill="#FFFFF0"/>
<path d="M18.5168 6.00307L18.8017 5.90892L18.7336 5.70307H18.5168V6.00307ZM21.3488 14.5711L21.064 14.6652L21.0652 14.6687L21.3488 14.5711ZM22.6448 15.4591H22.9448V15.1591H22.6448V15.4591ZM22.6448 15.7471V16.0471H22.9448V15.7471H22.6448ZM18.9968 15.7471H18.6968V16.0471H18.9968V15.7471ZM18.9968 15.4591V15.1591H18.6968V15.4591H18.9968ZM19.9568 14.5591L20.2438 14.4715L20.2432 14.4698L19.9568 14.5591ZM19.3808 12.7111L19.6672 12.6218L19.6016 12.4111H19.3808V12.7111ZM16.1648 12.7111V12.4111H15.945L15.8788 12.6206L16.1648 12.7111ZM15.5768 14.5711L15.8619 14.6645L15.8629 14.6615L15.5768 14.5711ZM16.5008 15.4591H16.8008V15.1591H16.5008V15.4591ZM16.5008 15.7471V16.0471H16.8008V15.7471H16.5008ZM13.7888 15.7471H13.4888V16.0471H13.7888V15.7471ZM13.7888 15.4591V15.1591H13.4888V15.4591H13.7888ZM15.0488 14.5711L15.3339 14.6645L15.3339 14.6645L15.0488 14.5711ZM17.8568 6.00307V5.70307H17.6395L17.5718 5.90964L17.8568 6.00307ZM17.7608 7.73107V7.43107H17.5417L17.475 7.63986L17.7608 7.73107ZM16.3208 12.2431L16.035 12.1519L15.9102 12.5431H16.3208V12.2431ZM19.2248 12.2431V12.5431H19.6334L19.5111 12.1532L19.2248 12.2431ZM17.8088 7.73107L18.0951 7.64124L18.0291 7.43107H17.8088V7.73107ZM18.232 6.09722L21.064 14.6652L21.6337 14.4769L18.8017 5.90892L18.232 6.09722ZM21.0652 14.6687C21.196 15.0486 21.3516 15.3513 21.632 15.5389C21.9073 15.7231 22.2489 15.7591 22.6448 15.7591V15.1591C22.2608 15.1591 22.0804 15.117 21.9657 15.0403C21.856 14.9669 21.7537 14.8255 21.6325 14.4734L21.0652 14.6687ZM22.3448 15.4591V15.7471H22.9448V15.4591H22.3448ZM22.6448 15.4471H18.9968V16.0471H22.6448V15.4471ZM19.2968 15.7471V15.4591H18.6968V15.7471H19.2968ZM18.9968 15.7591C19.2918 15.7591 19.5327 15.7472 19.7214 15.7133C19.9037 15.6804 20.0899 15.6184 20.2184 15.474C20.3577 15.3176 20.3752 15.1282 20.3603 14.9703C20.346 14.818 20.2968 14.6453 20.2438 14.4715L19.6699 14.6466C19.7249 14.8269 19.7552 14.9437 19.763 15.0265C19.7702 15.1037 19.7525 15.0951 19.7702 15.0751C19.7773 15.0672 19.7557 15.0974 19.6151 15.1228C19.481 15.1469 19.2838 15.1591 18.9968 15.1591V15.7591ZM20.2432 14.4698L19.6672 12.6218L19.0944 12.8003L19.6704 14.6483L20.2432 14.4698ZM19.3808 12.4111H16.1648V13.0111H19.3808V12.4111ZM15.8788 12.6206L15.2908 14.4806L15.8629 14.6615L16.4509 12.8015L15.8788 12.6206ZM15.2917 14.4777C15.2357 14.6488 15.1837 14.819 15.1666 14.9697C15.149 15.1252 15.1623 15.3147 15.2991 15.4725C15.4255 15.6184 15.6106 15.6806 15.7895 15.7133C15.975 15.7472 16.2117 15.7591 16.5008 15.7591V15.1591C16.22 15.1591 16.0276 15.1469 15.8974 15.1231C15.7606 15.0981 15.7431 15.0687 15.7525 15.0796C15.7724 15.1025 15.7542 15.1134 15.7628 15.0372C15.772 14.9561 15.804 14.8413 15.8619 14.6645L15.2917 14.4777ZM16.2008 15.4591V15.7471H16.8008V15.4591H16.2008ZM16.5008 15.4471H13.7888V16.0471H16.5008V15.4471ZM14.0888 15.7471V15.4591H13.4888V15.7471H14.0888ZM13.7888 15.7591C14.1736 15.7591 14.5104 15.723 14.7819 15.5371C15.0575 15.3483 15.2092 15.0449 15.3339 14.6645L14.7638 14.4776C14.6485 14.8293 14.5482 14.9699 14.4428 15.0421C14.3332 15.1171 14.1601 15.1591 13.7888 15.1591V15.7591ZM15.3339 14.6645L18.1419 6.0965L17.5718 5.90964L14.7638 14.4776L15.3339 14.6645ZM17.8568 6.30307H18.5168V5.70307H17.8568V6.30307ZM17.475 7.63986L16.035 12.1519L16.6066 12.3343L18.0466 7.82228L17.475 7.63986ZM16.3208 12.5431H19.2248V11.9431H16.3208V12.5431ZM19.5111 12.1532L18.0951 7.64124L17.5226 7.8209L18.9386 12.3329L19.5111 12.1532ZM17.8088 7.43107H17.7608V8.03107H17.8088V7.43107ZM24.3074 15.7471H24.0074V16.0471H24.3074V15.7471ZM24.3074 15.4591V15.1591H24.0074V15.4591H24.3074ZM24.3074 6.43507H24.0074V6.73507H24.3074V6.43507ZM24.3074 6.14707V5.84707H24.0074V6.14707H24.3074ZM28.9394 10.7791L28.9026 10.4813L28.6394 10.5139V10.7791H28.9394ZM28.9394 10.8391H28.6394V11.1205L28.9202 11.1385L28.9394 10.8391ZM26.9114 10.5391H26.6114V10.7949L26.864 10.8353L26.9114 10.5391ZM27.1514 6.69907L27.2143 6.99247L27.2201 6.9911L27.1514 6.69907ZM26.9114 11.1271L26.864 10.8308L26.6114 10.8713V11.1271H26.9114ZM27.9434 15.4471H24.3074V16.0471H27.9434V15.4471ZM24.6074 15.7471V15.4591H24.0074V15.7471H24.6074ZM24.3074 15.7591C24.5931 15.7591 24.8333 15.7455 25.0314 15.7089C25.2294 15.6723 25.4082 15.6088 25.5514 15.4921C25.8514 15.2476 25.8794 14.8675 25.8794 14.5111H25.2794C25.2794 14.8866 25.2294 14.9806 25.1723 15.027C25.1371 15.0558 25.0676 15.0921 24.9225 15.1189C24.7775 15.1456 24.5797 15.1591 24.3074 15.1591V15.7591ZM25.8794 14.5111V7.38307H25.2794V14.5111H25.8794ZM25.8794 7.38307C25.8794 7.02659 25.8514 6.64656 25.5514 6.40203C25.4082 6.28531 25.2294 6.22181 25.0314 6.18525C24.8333 6.14865 24.5931 6.13507 24.3074 6.13507V6.73507C24.5797 6.73507 24.7775 6.74849 24.9225 6.77527C25.0676 6.80208 25.1371 6.83833 25.1723 6.86711C25.2294 6.91358 25.2794 7.00755 25.2794 7.38307H25.8794ZM24.6074 6.43507V6.14707H24.0074V6.43507H24.6074ZM24.3074 6.44707H28.0634V5.84707H24.3074V6.44707ZM28.0634 6.44707C28.9015 6.44707 29.5565 6.63158 29.9953 6.9697C30.4221 7.29857 30.6794 7.7994 30.6794 8.52307H31.2794C31.2794 7.63874 30.9547 6.95157 30.3615 6.49444C29.7803 6.04656 28.9773 5.84707 28.0634 5.84707V6.44707ZM30.6794 8.52307C30.6794 9.11946 30.4852 9.57056 30.1795 9.88876C29.8711 10.2099 29.4291 10.4162 28.9026 10.4813L28.9762 11.0768C29.6137 10.9979 30.1917 10.7422 30.6123 10.3044C31.0356 9.86358 31.2794 9.25868 31.2794 8.52307H30.6794ZM28.6394 10.7791V10.8391H29.2394V10.7791H28.6394ZM28.9202 11.1385C29.6131 11.1828 30.1641 11.4193 30.5383 11.7715C30.91 12.1213 31.1234 12.5996 31.1234 13.1671H31.7234C31.7234 12.4386 31.4448 11.8008 30.9495 11.3346C30.4567 10.8708 29.7657 10.5913 28.9586 10.5397L28.9202 11.1385ZM31.1234 13.1671C31.1234 14.0172 30.7817 14.5656 30.2403 14.9163C29.6794 15.2796 28.876 15.4471 27.9434 15.4471V16.0471C28.9308 16.0471 29.8674 15.8726 30.5665 15.4199C31.2851 14.9545 31.7234 14.2129 31.7234 13.1671H31.1234ZM26.6114 7.01107V10.5391H27.2114V7.01107H26.6114ZM26.864 10.8353C27.1915 10.8877 27.5275 10.8871 27.8114 10.8871V10.2871C27.5193 10.2871 27.2313 10.2864 26.9588 10.2428L26.864 10.8353ZM27.8114 10.8871C28.3657 10.8871 28.9082 10.7107 29.3137 10.316C29.7217 9.91882 29.9594 9.33122 29.9594 8.57107H29.3594C29.3594 9.20292 29.1651 9.62332 28.8951 9.8861C28.6226 10.1514 28.2411 10.2871 27.8114 10.2871V10.8871ZM29.9594 8.57107C29.9594 7.81973 29.7165 7.25077 29.3065 6.87178C28.9013 6.49716 28.3663 6.33907 27.8354 6.33907V6.93907C28.2525 6.93907 28.6295 7.06298 28.8992 7.31236C29.1643 7.55737 29.3594 7.95441 29.3594 8.57107H29.9594ZM27.8354 6.33907C27.6025 6.33907 27.3219 6.35077 27.0827 6.40705L27.2201 6.9911C27.3889 6.95137 27.6123 6.93907 27.8354 6.93907V6.33907ZM27.0885 6.40573C26.9514 6.43512 26.8199 6.50234 26.7276 6.62667C26.638 6.74731 26.6114 6.88661 26.6114 7.01107H27.2114C27.2114 6.98998 27.2137 6.97907 27.2147 6.97558C27.2154 6.97281 27.2146 6.97725 27.2092 6.98447C27.2067 6.98786 27.2038 6.99096 27.2009 6.99356C27.198 6.99613 27.1958 6.99759 27.1948 6.99817C27.1929 6.99928 27.1978 6.99594 27.2143 6.99241L27.0885 6.40573ZM26.6114 11.1271V14.8831H27.2114V11.1271H26.6114ZM26.6114 14.8831C26.6114 15.0131 26.6481 15.1401 26.7332 15.2482C26.8148 15.3519 26.9235 15.4161 27.0304 15.4571C27.2347 15.5356 27.5023 15.5551 27.7874 15.5551V14.9551C27.5085 14.9551 27.3381 14.9326 27.2454 14.897C27.2038 14.881 27.1992 14.8702 27.2047 14.8772C27.2137 14.8886 27.2114 14.8971 27.2114 14.8831H26.6114ZM27.7874 15.5551C28.38 15.5551 29.0267 15.4463 29.532 15.0813C30.0551 14.7035 30.3794 14.0862 30.3794 13.1791H29.7794C29.7794 13.9279 29.5217 14.3486 29.1807 14.5949C28.8221 14.8539 28.3228 14.9551 27.7874 14.9551V15.5551ZM30.3794 13.1791C30.3794 12.2572 30.0019 11.6395 29.4714 11.2633C28.9566 10.8983 28.3252 10.7791 27.8234 10.7791V11.3791C28.2456 11.3791 28.7422 11.4818 29.1244 11.7528C29.4908 12.0126 29.7794 12.445 29.7794 13.1791H30.3794ZM27.8234 10.7791C27.5155 10.7791 27.1915 10.7784 26.864 10.8308L26.9588 11.4233C27.2313 11.3797 27.5073 11.3791 27.8234 11.3791V10.7791ZM37.7077 15.6391C36.6819 15.6391 35.8283 15.1464 35.2216 14.3148C34.6109 13.4776 34.2517 12.2952 34.2517 10.9471H33.6517C33.6517 12.395 34.0366 13.7085 34.7369 14.6684C35.4412 15.6338 36.4656 16.2391 37.7077 16.2391V15.6391ZM34.2517 10.9471C34.2517 9.59901 34.6109 8.41931 35.2174 7.58497C35.8201 6.75584 36.6649 6.26707 37.6717 6.26707V5.66707C36.4466 5.66707 35.4313 6.2703 34.7321 7.23217C34.0366 8.18883 33.6517 9.49913 33.6517 10.9471H34.2517ZM37.6717 6.26707C38.697 6.26707 39.5507 6.76223 40.1577 7.59569C40.7687 8.43454 41.1277 9.61717 41.1277 10.9591H41.7277C41.7277 9.51697 41.3428 8.2036 40.6427 7.24245C39.9388 6.27591 38.9145 5.66707 37.6717 5.66707V6.26707ZM41.1277 10.9591C41.1277 12.3139 40.7713 13.4934 40.1665 14.3257C39.5659 15.1525 38.7215 15.6391 37.7077 15.6391V16.2391C38.938 16.2391 39.9536 15.6397 40.6519 14.6784C41.3462 13.7228 41.7277 12.4123 41.7277 10.9591H41.1277ZM37.9597 15.7231C38.7888 15.7231 39.3958 15.2106 39.7798 14.5097C40.1617 13.8129 40.3477 12.8955 40.3477 11.9671H39.7477C39.7477 12.8266 39.5738 13.6372 39.2537 14.2214C38.9357 14.8016 38.4987 15.1231 37.9597 15.1231V15.7231ZM40.3477 11.9671C40.3477 10.6716 40.1184 9.25942 39.6585 8.15982C39.2087 7.08433 38.4794 6.18307 37.4197 6.18307V6.78307C38.0881 6.78307 38.6727 7.35781 39.105 8.39132C39.5271 9.40072 39.7477 10.7305 39.7477 11.9671H40.3477ZM37.4197 6.18307C36.5954 6.18307 35.989 6.70011 35.6044 7.39892C35.2213 8.0951 35.0317 9.00928 35.0317 9.92707H35.6317C35.6317 9.08086 35.8082 8.27304 36.1301 7.68822C36.4505 7.10603 36.8881 6.78307 37.4197 6.78307V6.18307ZM35.0317 9.92707C35.0317 11.2337 35.2579 12.649 35.7163 13.749C36.1652 14.8261 36.8948 15.7231 37.9597 15.7231V15.1231C37.2846 15.1231 36.7002 14.5501 36.2701 13.5182C35.8496 12.5091 35.6317 11.1764 35.6317 9.92707H35.0317ZM43.466 6.43507H43.166V6.73507H43.466V6.43507ZM43.466 6.14707V5.84707H43.166V6.14707H43.466ZM47.378 6.14707H47.678V5.84707H47.378V6.14707ZM47.378 6.43507V6.73507H47.678V6.43507H47.378ZM49.106 6.43507H48.806V6.73507H49.106V6.43507ZM49.106 6.14707V5.84707H48.806V6.14707H49.106ZM52.202 6.14707H52.502V5.84707H52.202V6.14707ZM52.202 6.43507V6.73507H52.502V6.43507H52.202ZM47.918 15.6391C46.8269 15.6391 46.1257 15.2973 45.6901 14.7737C45.2461 14.2402 45.038 13.4705 45.038 12.5431H44.438C44.438 13.5476 44.6618 14.476 45.2288 15.1575C45.8042 15.8489 46.693 16.2391 47.918 16.2391V15.6391ZM45.038 12.5431V7.38307H44.438V12.5431H45.038ZM45.038 7.38307C45.038 7.02659 45.01 6.64656 44.71 6.40203C44.5668 6.28531 44.388 6.22181 44.19 6.18525C43.9918 6.14865 43.7516 6.13507 43.466 6.13507V6.73507C43.7383 6.73507 43.9361 6.74849 44.081 6.77527C44.2262 6.80208 44.2956 6.83833 44.3309 6.86711C44.3879 6.91358 44.438 7.00755 44.438 7.38307H45.038ZM43.766 6.43507V6.14707H43.166V6.43507H43.766ZM43.466 6.44707H47.378V5.84707H43.466V6.44707ZM47.078 6.14707V6.43507H47.678V6.14707H47.078ZM47.378 6.13507C47.0894 6.13507 46.8471 6.14864 46.6475 6.18515C46.4482 6.2216 46.2684 6.28486 46.1244 6.40126C45.8219 6.64575 45.794 7.02655 45.794 7.38307H46.394C46.394 7.00759 46.444 6.91439 46.5015 6.86788C46.5376 6.83878 46.6082 6.80229 46.7554 6.77536C46.9023 6.7485 47.1025 6.73507 47.378 6.73507V6.13507ZM45.794 7.38307V12.5431H46.394V7.38307H45.794ZM45.794 12.5431C45.794 13.5438 45.9837 14.3109 46.4094 14.8303C46.8458 15.3626 47.4827 15.5791 48.242 15.5791V14.9791C47.5972 14.9791 47.1601 14.7995 46.8735 14.4499C46.5762 14.0872 46.394 13.4863 46.394 12.5431H45.794ZM48.242 15.5791C48.9769 15.5791 49.6083 15.3375 50.048 14.7981C50.4791 14.2693 50.69 13.4974 50.69 12.5071H50.09C50.09 13.4248 49.8928 14.0389 49.5829 14.419C49.2816 14.7887 48.839 14.9791 48.242 14.9791V15.5791ZM50.69 12.5071V7.38307H50.09V12.5071H50.69ZM50.69 7.38307C50.69 7.02305 50.6579 6.64401 50.3541 6.4005C50.2099 6.28486 50.0303 6.22166 49.8315 6.18518C49.6325 6.14866 49.3917 6.13507 49.106 6.13507V6.73507C49.3782 6.73507 49.5769 6.74848 49.7232 6.77533C49.8698 6.80223 49.9416 6.83878 49.9788 6.86864C50.038 6.91613 50.09 7.01109 50.09 7.38307H50.69ZM49.406 6.43507V6.14707H48.806V6.43507H49.406ZM49.106 6.44707H52.202V5.84707H49.106V6.44707ZM51.902 6.14707V6.43507H52.502V6.14707H51.902ZM52.202 6.13507C51.9162 6.13507 51.6754 6.14866 51.4764 6.18518C51.2776 6.22166 51.0981 6.28486 50.9538 6.4005C50.65 6.64401 50.618 7.02305 50.618 7.38307H51.218C51.218 7.01109 51.2699 6.91613 51.3291 6.86864C51.3664 6.83878 51.4381 6.80223 51.5847 6.77533C51.731 6.74848 51.9297 6.73507 52.202 6.73507V6.13507ZM50.618 7.38307V12.5071H51.218V7.38307H50.618ZM50.618 12.5071C50.618 13.3611 50.4596 14.1458 50.056 14.71C49.6653 15.2562 49.0138 15.6391 47.918 15.6391V16.2391C49.1741 16.2391 50.0226 15.788 50.544 15.0591C51.0523 14.3484 51.218 13.4171 51.218 12.5071H50.618ZM54.6536 8.60707L54.633 8.90636L54.9312 8.92693L54.9528 8.62875L54.6536 8.60707ZM54.3056 8.58307L54.0065 8.56059L53.9838 8.86159L54.285 8.88236L54.3056 8.58307ZM54.4616 6.50707L54.163 6.47721L54.1625 6.48459L54.4616 6.50707ZM54.4976 6.14707V5.84707H54.2261L54.1991 6.11722L54.4976 6.14707ZM61.1096 6.14707L61.4089 6.12711L61.3903 5.84707H61.1096V6.14707ZM61.1336 6.50707L60.8343 6.52703L60.8345 6.52955L61.1336 6.50707ZM61.2896 8.58307L61.311 8.88231L61.6113 8.86086L61.5888 8.56059L61.2896 8.58307ZM60.9536 8.60707L60.6546 8.63091L60.6782 8.92751L60.975 8.90631L60.9536 8.60707ZM59.7536 15.4591H60.0536V15.1591H59.7536V15.4591ZM59.7536 15.7471V16.0471H60.0536V15.7471H59.7536ZM55.8416 15.7471H55.5416V16.0471H55.8416V15.7471ZM55.8416 15.4591V15.1591H55.5416V15.4591H55.8416ZM56.7176 6.38707H55.9376V6.98707H56.7176V6.38707ZM55.9376 6.38707C55.4813 6.38707 55.0554 6.45245 54.7686 6.85081C54.6372 7.03347 54.5509 7.26569 54.4889 7.54303C54.4266 7.82171 54.3848 8.16555 54.3544 8.58539L54.9528 8.62875C54.9824 8.22059 55.0216 7.91043 55.0745 7.67386C55.1276 7.43595 55.1906 7.29167 55.2556 7.20133C55.3619 7.05369 55.5179 6.98707 55.9376 6.98707V6.38707ZM54.6743 8.30778L54.3263 8.28378L54.285 8.88236L54.633 8.90636L54.6743 8.30778ZM54.6048 8.60555L54.7608 6.52955L54.1625 6.48459L54.0065 8.56059L54.6048 8.60555ZM54.7601 6.53692L54.7961 6.17692L54.1991 6.11722L54.1631 6.47722L54.7601 6.53692ZM54.4976 6.44707H61.1096V5.84707H54.4976V6.44707ZM60.8103 6.16703L60.8343 6.52703L61.4329 6.48711L61.4089 6.12711L60.8103 6.16703ZM60.8345 6.52955L60.9905 8.60555L61.5888 8.56059L61.4328 6.48459L60.8345 6.52955ZM61.2682 8.28383L60.9322 8.30783L60.975 8.90631L61.311 8.88231L61.2682 8.28383ZM61.2527 8.58323C61.2192 8.16386 61.1759 7.82041 61.1129 7.54222C61.0503 7.26544 60.964 7.03336 60.8326 6.85081C60.5456 6.45208 60.1191 6.38707 59.6576 6.38707V6.98707C60.0842 6.98707 60.2396 7.05406 60.3456 7.20133C60.4107 7.29177 60.4737 7.4362 60.5277 7.67467C60.5814 7.91173 60.622 8.22228 60.6546 8.63091L61.2527 8.58323ZM59.6576 6.38707H58.8776V6.98707H59.6576V6.38707ZM58.8776 6.38707C58.6951 6.38707 58.5095 6.44033 58.3707 6.58228C58.2327 6.7233 58.1816 6.91023 58.1816 7.09507H58.7816C58.7816 7.05582 58.787 7.03123 58.7917 7.01764C58.794 7.011 58.7961 7.00702 58.7973 7.00493C58.7986 7.00291 58.7993 7.00209 58.7996 7.00186C58.7998 7.00163 58.8003 7.00114 58.8016 7.00032C58.8029 6.99948 58.8058 6.99783 58.8111 6.99595C58.8218 6.99209 58.8427 6.98707 58.8776 6.98707V6.38707ZM58.1816 7.09507V14.5111H58.7816V7.09507H58.1816ZM58.1816 14.5111C58.1816 14.8675 58.2096 15.2476 58.5096 15.4921C58.6528 15.6088 58.8316 15.6723 59.0296 15.7089C59.2277 15.7455 59.4679 15.7591 59.7536 15.7591V15.1591C59.4813 15.1591 59.2835 15.1456 59.1385 15.1189C58.9934 15.0921 58.924 15.0558 58.8887 15.027C58.8316 14.9806 58.7816 14.8866 58.7816 14.5111H58.1816ZM59.4536 15.4591V15.7471H60.0536V15.4591H59.4536ZM59.7536 15.4471H55.8416V16.0471H59.7536V15.4471ZM56.1416 15.7471V15.4591H55.5416V15.7471H56.1416ZM55.8416 15.7591C56.1302 15.7591 56.3725 15.7455 56.5721 15.709C56.7714 15.6725 56.9512 15.6093 57.0952 15.4929C57.3977 15.2484 57.4256 14.8676 57.4256 14.5111H56.8256C56.8256 14.8865 56.7756 14.9798 56.718 15.0263C56.682 15.0554 56.6113 15.0919 56.4641 15.1188C56.3173 15.1456 56.117 15.1591 55.8416 15.1591V15.7591ZM57.4256 14.5111V7.09507H56.8256V14.5111H57.4256ZM57.4256 7.09507C57.4256 6.9102 57.3744 6.72162 57.2327 6.57994C57.0911 6.43826 56.9025 6.38707 56.7176 6.38707V6.98707C56.7569 6.98707 56.7811 6.99249 56.7941 6.99702C56.8004 6.99922 56.8041 7.0012 56.8059 7.0023C56.8076 7.00336 56.8083 7.00401 56.8085 7.0042C56.8087 7.00439 56.8093 7.00505 56.8104 7.00678C56.8115 7.00858 56.8135 7.01225 56.8157 7.01858C56.8202 7.03159 56.8256 7.05577 56.8256 7.09507H57.4256Z" fill="#FFFFF0" mask="url(#path-1-outside-1_1_860)"/>
</svg>
