<svg width="64" height="45" viewBox="0 0 64 45" fill="none" xmlns="http://www.w3.org/2000/svg">
<path d="M26.881 22.2491C29.0887 24.5424 31.0656 26.8951 31.6122 30.0551C32.1988 33.446 31.0823 36.3463 28.6012 38.6344C26.4675 40.6019 23.5975 40.1509 22.1675 37.6105C21.4767 36.3828 21.0232 34.9313 20.8304 33.5305C20.3487 30.0291 20.6716 26.569 22.1234 23.1875C19.8021 21.7395 17.4335 21.3796 14.8526 22.0892C6.18843 24.4708 1.39642 33.2089 4.09232 41.8097C4.42453 42.8698 4.67298 43.9218 3.39071 44.3853C2.14005 44.8372 1.54551 43.9079 1.1306 42.8934C-3.3247 32.0046 6.04458 18.0923 17.7373 18.3486C19.3524 18.384 21.0395 18.8586 22.5335 19.5018C23.7205 20.0132 24.2466 19.7747 25.0532 18.9052C28.1706 15.5453 31.7509 12.7406 36.348 11.8651C38.6178 11.433 41.0337 11.6461 43.3734 11.7653C44.264 11.8109 44.8092 11.7622 45.4302 11.0411C49.5578 6.24739 55.0004 3.31962 60.5569 0.579938C61.6762 0.0281779 62.7517 0.260086 63.2681 1.45331C63.8387 2.77134 62.9373 3.33005 61.8427 3.84043C57.5959 5.82009 53.551 8.13806 49.9974 11.2404C49.3118 11.8387 48.5595 12.3609 48.1029 12.7138C50.0023 14.9181 51.8416 16.6001 53.1232 18.6344C55.7218 22.7585 54.7453 27.3794 51.0243 30.076C48.2721 32.0703 45.4848 31.5714 43.7671 28.6398C41.5671 24.8849 41.1626 20.8553 42.2694 16.6631C42.3907 16.2038 42.5481 15.7539 42.6874 15.3033C38.0844 13.6049 30.2698 17.0191 26.881 22.2491ZM46.276 16.3846C44.5271 19.2073 44.8489 24.7451 46.946 27.0971C47.2654 27.4552 48.2287 27.6092 48.6908 27.4024C50.379 26.6472 51.4722 24.3442 51.0215 22.5409C50.3418 19.8206 48.7169 17.7885 46.276 16.3846ZM24.968 25.4318C23.9426 28.5876 23.758 31.5783 24.5531 34.5902C24.7133 35.1973 25.2818 35.6969 25.662 36.2459C26.2076 35.7914 26.9095 35.4368 27.273 34.8663C29.1624 31.8989 28.3767 28.5942 24.9684 25.4318H24.968Z" fill="black"/>
</svg>
