<svg width="251" height="250" viewBox="0 0 251 250" fill="none" xmlns="http://www.w3.org/2000/svg">
<path d="M121.367 3.31141C125.069 2.52636 128.806 1.53897 132.605 0.963563C145.475 -0.985503 157.984 0.755305 170.166 5.11306C172.276 5.86752 174.335 6.86674 176.261 8.01476C193.084 18.0396 207.586 30.639 218.891 46.7527C219.099 47.0489 219.426 47.5381 219.641 47.5096C221.485 47.2645 222.204 48.732 223.046 49.8119C224.629 51.8427 226.101 53.9691 227.496 56.1347C230.521 60.827 233.991 65.3241 236.341 70.3411C241.509 81.3784 246.412 92.6291 248.479 104.734C251.474 122.282 251.153 139.738 245.555 156.858C243.354 163.592 241.633 170.508 239.032 177.079C235.702 185.495 230.677 193.064 225.595 200.523C215.15 215.85 201.053 226.815 184.336 234.555C180.244 236.45 176.046 238.121 171.981 240.069C164.043 243.874 155.357 245.068 147.02 247.483C136.565 250.513 126.055 250.46 115.403 249.098C99.7555 247.098 84.6455 243.185 70.1123 237.007C56.4535 231.201 44.8018 222.635 34.3549 212.148C26.9851 204.75 21.495 196.158 16.94 186.934C10.7395 174.378 6.30263 161.128 2.79531 147.593C-1.37295 131.509 -0.688368 115.429 3.57963 99.4533C8.90298 79.5274 17.3903 60.9771 29.4666 44.3273C41.2038 28.1451 56.8642 16.6222 75.3915 8.99903C85.4955 4.84153 96.0664 2.86674 106.845 1.85987C110.613 1.50802 114.448 1.70377 118.241 1.88699C119.318 1.93914 120.357 2.82779 121.367 3.31141ZM109.807 244.34C108.343 243.322 106.684 242.497 105.452 241.25C100.93 236.672 96.5508 231.952 92.1108 227.292C91.829 226.996 91.5225 226.609 91.1635 226.519C88.06 225.74 84.9419 225.02 81.477 224.199C82.4235 225.264 83.1172 226.125 83.8921 226.903C87.9693 231.002 92.1084 235.041 96.114 239.209C96.7218 239.842 96.7419 241.039 97.1666 242.401C100.515 243.037 104.456 243.8 108.405 244.515C108.848 244.595 109.341 244.404 109.81 244.338C110.363 244.574 110.898 244.951 111.471 245.022C115.571 245.528 119.675 246.004 123.784 246.42C125.46 246.589 127.154 246.587 128.844 246.662C128.844 246.398 128.865 246.331 128.841 246.307C123.288 240.626 117.743 234.937 112.151 229.294C111.762 228.901 111.035 228.716 110.447 228.67C107.665 228.453 104.875 228.349 102.092 228.141C100.483 228.021 98.8822 227.783 97.2775 227.597C97.1895 227.733 97.1013 227.869 97.0134 228.005C101.283 232.217 105.553 236.428 109.819 240.643C110.35 241.167 110.987 241.643 111.345 242.272C112.034 243.483 111.268 244.449 109.807 244.34ZM121.053 5.05953C120.037 5.05953 119.077 5.23823 118.212 5.02893C114.289 4.08012 110.395 4.67325 106.516 5.17216C96.3837 6.47594 86.3816 8.26371 76.825 12.1594C59.1404 19.3681 44.2079 30.3362 32.8263 45.5825C21.626 60.586 13.834 77.4802 8.32023 95.3782C5.57429 104.291 3.77493 113.408 3.49971 122.761C3.15951 134.323 5.05929 145.539 9.13755 156.359C11.9478 163.814 15.3432 171.009 19.7196 177.68C24.8317 185.472 31.823 191.549 38.8307 197.49C48.1083 205.357 58.7077 211.144 69.8329 216.035C88.6712 224.317 108.265 227.014 128.581 224.089C148.908 221.164 167.89 214.37 185.566 203.835C208.061 190.429 222.193 170.754 228.982 145.747C232.793 131.711 233.728 117.285 233.144 102.741C232.694 91.5329 231.025 80.6277 226.651 70.2201C222.942 61.3957 219.315 52.5074 213.334 44.9191C204.259 33.4044 193.586 23.6622 181.454 15.3187C167.389 5.64605 151.994 2.59417 135.386 4.14932C131.497 4.51333 127.658 5.42075 123.801 6.10219C122.538 6.3254 121.406 6.36157 121.053 5.05953ZM173.615 235.522C171.748 234.166 169.743 232.908 167.971 231.38C164.269 228.188 160.694 224.848 157.048 221.591C156.777 221.349 156.289 221.085 156 221.169C152.619 222.162 149.256 223.22 145.528 224.371C150.164 228.685 154.581 232.828 159.046 236.917C159.811 237.617 160.596 238.23 159.972 239.323C159.36 240.394 158.313 240.298 157.429 239.782C156.374 239.165 155.324 238.46 154.463 237.601C150.509 233.654 146.625 229.636 142.7 225.66C142.473 225.43 142.071 225.159 141.807 225.209C138.514 225.83 135.231 226.507 131.485 227.263C136.371 232.23 141.032 236.899 145.606 241.651C147.289 243.4 149.082 243.732 151.263 242.823C151.996 242.518 152.819 242.41 153.611 242.272C160.705 241.038 167.321 238.414 173.615 235.522ZM208.982 214.101C215.22 208.998 220.42 202.802 224.585 195.652C219.409 193.684 215.982 189.551 212.016 186.138C209.259 189.105 206.565 192.005 203.794 194.987C204.407 195.695 204.954 196.424 205.599 197.054C208.133 199.533 210.697 201.983 213.253 204.441C213.919 205.082 214.529 205.932 213.746 206.643C213.273 207.072 212.105 207.193 211.497 206.913C210.455 206.434 209.567 205.575 208.683 204.798C206.02 202.457 203.389 200.077 200.651 197.629C199.104 198.812 196.931 200.471 194.575 202.271C198.843 206.894 203.563 210.866 208.982 214.101ZM186.937 229.559C180.585 225.691 175.839 220.384 170.389 215.762C167.051 217.083 163.55 218.468 159.895 219.913C161.743 221.527 163.407 223.044 165.141 224.478C168.117 226.94 171.159 229.321 174.12 231.801C174.899 232.454 175.48 233.344 176.347 234.353C179.488 232.931 183.094 231.299 186.937 229.559ZM143.596 244.834C139.266 240.127 134.952 235.774 131.06 231.071C128.998 228.581 127.084 227.163 123.734 228.093C122.013 228.57 120.109 228.39 118.288 228.508C117.676 228.547 117.064 228.591 116.146 228.652C121.997 234.917 127.56 240.96 134.147 245.94C134.481 246.193 135.036 246.344 135.446 246.277C138.137 245.843 140.816 245.335 143.596 244.834ZM43.0261 205.32C42.9062 205.384 42.786 205.448 42.6661 205.513C47.0394 211.678 51.3856 217.863 55.8075 223.992C56.7225 225.261 57.7194 226.68 59.0246 227.417C63.0859 229.707 67.3104 231.709 71.4801 233.806C71.9444 234.04 72.4621 234.166 73.1926 234.427C71.7907 232.873 70.5328 231.619 69.4354 230.237C65.126 224.81 60.8695 219.341 56.5842 213.895C56.3232 213.563 56.0271 213.223 55.6737 213.007C51.4658 210.431 47.244 207.879 43.0261 205.32ZM197.715 223.241C191.27 219.879 186.8 214.429 181.267 210.248C178.759 211.565 176.223 212.896 173.312 214.424C178.049 218.303 182.532 221.949 186.981 225.638C187.834 226.345 188.549 227.22 189.535 228.231C191.996 226.729 194.813 225.011 197.715 223.241ZM92.6018 241.333C87.9811 236.209 83.441 231.365 79.1317 226.323C76.6498 223.42 74.0228 220.98 70.2385 219.893C68.2977 219.334 66.4959 218.295 64.6256 217.486C64.2872 217.34 63.9213 217.258 63.5679 217.147C63.4368 217.309 63.3058 217.471 63.1748 217.632C67.6076 222.568 72.0062 227.535 76.4949 232.419C77.741 233.775 77.8953 234.349 76.449 235.937C81.8616 237.745 87.1718 239.519 92.6018 241.333ZM206.639 216.363C200.691 213.281 196.387 208.557 191.776 204.076C189.402 205.515 186.919 207.021 184.188 208.677C189.612 213.077 194.815 217.296 200.114 221.594C202.229 219.898 204.392 218.164 206.639 216.363ZM19.1928 183.503C21.1725 191.93 40.4553 216.287 48.0694 219.643C43.6982 212.778 39.2922 205.856 34.8807 198.937C34.7379 198.713 34.5582 198.506 34.3674 198.319C29.1956 193.265 24.0199 188.215 19.1928 183.503ZM219.885 175.387C217.901 178.168 216.013 180.815 214.039 183.582C217.868 187.116 221.456 190.878 226.513 192.933C228.047 190.302 229.572 187.687 231.088 185.087C226.381 182.884 223.692 178.595 219.885 175.387ZM225.862 164.594C225.284 165.688 224.701 166.755 224.152 167.84C223.388 169.351 221.873 171.014 222.113 172.355C222.377 173.828 224.198 175.082 225.465 176.303C227.719 178.476 230.067 180.552 232.619 182.892C234.242 179.357 235.688 176.211 236.922 173.524C233.069 170.413 229.514 167.543 225.862 164.594ZM244.473 144.715C244.74 144.616 245.008 144.518 245.276 144.42C245.814 140.267 246.351 136.114 246.884 131.995C242.312 130.859 239.596 127.491 236.087 124.881C235.804 127.23 235.633 129.352 235.272 131.441C234.969 133.192 234.867 134.691 236.331 136.129C239.143 138.891 241.769 141.842 244.473 144.715ZM244.386 147.496C239.656 146.092 237.681 141.633 234.216 138.736C233.469 141.966 232.732 145.074 232.054 148.194C231.98 148.535 232.128 149.077 232.376 149.312C235.381 152.164 237.88 155.596 241.777 157.563C242.65 154.195 243.52 150.838 244.386 147.496ZM230.898 152.52C229.78 155.328 228.646 158.09 227.61 160.889C227.489 161.214 227.794 161.874 228.105 162.153C229.821 163.69 231.574 165.19 233.365 166.639C234.84 167.833 236.385 168.939 238.095 170.232C239.193 166.531 240.191 163.168 241.174 159.852C236.037 159.615 234.27 154.983 230.898 152.52ZM245.659 113.8C245.797 113.729 245.935 113.657 246.073 113.586C245.764 110.898 245.448 108.211 245.149 105.523C244.703 101.514 243.604 97.8863 239.739 95.7613C239.19 95.4596 238.78 94.9088 238.295 94.4857C237.598 93.8773 236.89 93.2803 235.944 92.4699C236.12 95.291 236.494 97.7062 236.371 100.096C236.175 103.892 237.494 106.816 240.464 109.121C241.474 109.906 242.296 110.928 243.247 111.796C244.018 112.5 244.852 113.134 245.659 113.8ZM237.095 110.152C236.87 110.209 236.645 110.266 236.42 110.323C236.42 113.423 236.347 116.525 236.473 119.62C236.504 120.37 237.034 121.277 237.616 121.794C239.702 123.648 241.88 125.402 244.084 127.115C244.849 127.71 245.791 128.076 247.12 128.802C246.878 124.962 246.693 121.654 246.428 118.353C246.4 117.999 245.955 117.606 245.611 117.363C244.176 116.347 242.606 115.499 241.277 114.366C239.776 113.087 238.48 111.567 237.095 110.152ZM241.94 93.2195C240.881 90.3463 239.984 87.8962 239.069 85.4524C238.979 85.2118 238.835 84.9302 238.631 84.8037C237.099 83.8514 235.546 82.9328 234.191 82.1186C234.566 84.0621 235.029 86.4583 235.364 88.1959C237.714 89.9913 239.63 91.4547 241.94 93.2195ZM235.888 77.9972C234.211 72.6726 231.393 67.8111 227.668 63.2117C229.731 68.7738 231.72 74.1356 233.646 79.3288C234.277 78.954 235.058 78.4902 235.888 77.9972Z" fill="black"/>
</svg>
