<svg width="64" height="45" viewBox="0 0 64 45" fill="none" xmlns="http://www.w3.org/2000/svg">
<path d="M26.881 22.2003C29.0887 24.4936 31.0656 26.8463 31.6122 30.0063C32.1988 33.3972 31.0823 36.2975 28.6012 38.5856C26.4675 40.5531 23.5975 40.1021 22.1675 37.5616C21.4767 36.334 21.0232 34.8825 20.8304 33.4817C20.3487 29.9803 20.6716 26.5202 22.1234 23.1387C19.8021 21.6906 17.4335 21.3308 14.8526 22.0404C6.18843 24.422 1.39642 33.1601 4.09232 41.7609C4.42453 42.8209 4.67298 43.873 3.39071 44.3364C2.14005 44.7884 1.54551 43.8591 1.1306 42.8446C-3.3247 31.9557 6.04458 18.0435 17.7373 18.2997C19.3524 18.3352 21.0395 18.8098 22.5335 19.453C23.7205 19.9644 24.2466 19.7259 25.0532 18.8564C28.1706 15.4964 31.7509 12.6918 36.348 11.8163C38.6178 11.3842 41.0337 11.5973 43.3734 11.7165C44.264 11.7621 44.8092 11.7134 45.4302 10.9923C49.5578 6.19856 55.0004 3.27079 60.5569 0.53111C61.6762 -0.0206503 62.7517 0.211257 63.2681 1.40448C63.8387 2.72251 62.9373 3.28122 61.8427 3.7916C57.5959 5.77127 53.551 8.08924 49.9974 11.1915C49.3118 11.7899 48.5595 12.3121 48.1029 12.665C50.0023 14.8692 51.8416 16.5513 53.1232 18.5855C55.7218 22.7097 54.7453 27.3306 51.0243 30.0272C48.2721 32.0214 45.4848 31.5225 43.7671 28.5909C41.5671 24.836 41.1626 20.8065 42.2694 16.6142C42.3907 16.1549 42.5481 15.7051 42.6874 15.2545C38.0844 13.5561 30.2698 16.9702 26.881 22.2003ZM46.276 16.3357C44.5271 19.1585 44.8489 24.6963 46.946 27.0483C47.2654 27.4064 48.2287 27.5604 48.6908 27.3536C50.379 26.5984 51.4722 24.2954 51.0215 22.492C50.3418 19.7718 48.7169 17.7396 46.276 16.3357ZM24.968 25.3829C23.9426 28.5388 23.758 31.5295 24.5531 34.5414C24.7133 35.1484 25.2818 35.6481 25.662 36.197C26.2076 35.7426 26.9095 35.388 27.273 34.8174C29.1624 31.85 28.3767 28.5454 24.9684 25.3829H24.968Z" fill="black"/>
</svg>
