<svg width="46" height="62" viewBox="0 0 46 62" fill="none" xmlns="http://www.w3.org/2000/svg">
<path d="M30.2682 19.6898C37.3064 21.5659 41.0942 26.223 42.627 32.8198C43.7821 37.7909 41.5557 41.6508 37.1775 42.5888C34.0386 43.2612 31.2036 42.61 28.9167 40.1825C24.8833 35.9005 23.5437 30.8857 24.7874 25.1549C24.8545 24.8452 24.8927 24.5288 24.9334 24.2141C24.9382 24.1752 24.8753 24.1279 24.7607 23.9701C22.2646 24.5264 19.9457 25.6205 17.9264 27.2205C9.86193 33.6108 4.9389 41.851 3.67852 52.1331C3.51242 53.4884 3.65732 54.9521 4.001 56.2764C4.2644 57.2923 5.13767 58.1347 5.60541 59.1183C5.91503 59.7695 5.98662 60.5333 6.16488 61.2471C5.44035 61.3973 4.45414 61.9167 4.0427 61.625C3.03982 60.914 2.02928 59.9576 1.51081 58.8672C-0.0279158 55.6304 0.0912769 52.1422 0.800872 48.7444C3.00159 38.2046 8.27907 29.5586 17.304 23.5382C19.611 21.9994 22.5085 21.3517 25.1203 20.2604C25.668 20.0316 26.4332 19.7719 26.625 19.3237C29.6197 12.3337 34.8708 7.20968 40.4736 2.36622C41.0824 1.83984 41.6776 1.27903 42.3549 0.854863C43.4158 0.190456 44.4816 0.259646 45.1089 1.43966C45.7191 2.58733 45.1606 3.34492 44.1334 4.09764C38.4455 8.26383 33.5517 13.1591 30.2689 19.6898H30.2682ZM27.7439 28.5854C27.9344 32.8458 29.2358 36.042 32.1687 38.4198C33.7275 39.6836 36.1107 39.767 37.7686 38.692C39.3914 37.64 39.5767 35.9767 39.3532 34.2675C38.8556 30.4636 36.9961 27.3821 33.9708 25.0903C32.9394 24.3087 31.6168 23.8599 30.3679 23.434C29.3563 23.0887 28.6415 23.4798 28.4709 24.696C28.2631 26.176 27.9257 27.6377 27.7439 28.5858V28.5854Z" fill="black"/>
</svg>
